<?xml version="1.0" encoding="utf-8"?>
<!-- Generator: Adobe Illustrator 27.5.0, SVG Export Plug-In . SVG Version: 6.00 Build 0)  -->
<svg version="1.1" xmlns="http://www.w3.org/2000/svg" xmlns:xlink="http://www.w3.org/1999/xlink" x="0px" y="0px"
	 viewBox="0 0 1122 1122" style="enable-background:new 0 0 1122 1122;" xml:space="preserve">
<g id="BG">
	<rect style="fill:#272525;" width="1122" height="1122"/>
</g>
<g id="Objects">
	<g>
		<g>
			<g>
				<g>
					<g id="XMLID_151_">
						<g>
							<g>
								<path style="fill:#6F4891;" d="M835.615,655.028v50.523c0-8.585-1.111-17.018-3.232-25.249
									C834.504,672.071,835.615,663.612,835.615,655.028z"/>
							</g>
							<g>
								<path style="fill:#A685B9;" d="M835.615,655.028c0,8.585-1.111,17.043-3.232,25.274
									c-20.325-78.701-134.172-138.97-271.576-138.97s-251.25,60.269-271.576,138.97c-2.121-8.231-3.232-16.69-3.232-25.274
									c0-90.693,123.037-164.218,274.807-164.218S835.615,564.334,835.615,655.028z"/>
							</g>
							<g>
								<path style="fill:#6F4891;" d="M832.383,680.302c2.121,8.231,3.232,16.664,3.232,25.249
									c0,90.694-123.037,164.218-274.807,164.218S286,796.244,286,705.551c0-8.585,1.111-17.018,3.232-25.249
									c20.35,78.7,134.197,138.944,271.576,138.944C698.186,819.246,812.033,759.002,832.383,680.302z"/>
							</g>
							<g>
								<path style="fill:#A685B9;" d="M560.807,541.333c137.404,0,251.25,60.269,271.576,138.97
									c-20.35,78.7-134.197,138.944-271.576,138.944c-137.379,0-251.225-60.244-271.576-138.944
									C309.557,601.602,423.404,541.333,560.807,541.333z"/>
							</g>
							<g>
								<path style="fill:#6F4891;" d="M286,655.028c0,8.585,1.111,17.043,3.232,25.274c-2.121,8.231-3.232,16.664-3.232,25.249
									V655.028z"/>
							</g>
						</g>
					</g>
				</g>
				<g id="XMLID_150_">
					<g>
						<g>
							<path style="fill:#917AA5;" d="M408.004,577.433c74.888-0.126,52.063,35.803,52.063,35.803
								c-67.591,16.21-93.9-18.205-96.374-21.689c-0.101-0.151-0.076-0.353,0.101-0.454
								C370.812,587.003,408.004,577.433,408.004,577.433z"/>
						</g>
						<g>
							<path style="fill:#917AA5;" d="M427.597,730.34c0,0,62.036,7.12,32.47,25.223c-22.32,13.659-47.947,10.049-59.158,7.448
								c-3.838-0.883-6.464-4.469-6.085-8.382C396.844,733.951,427.597,730.34,427.597,730.34z"/>
						</g>
						<g>
							<path style="fill:#624284;" d="M664.203,806.995c42.064-11.135,164.445-51.407,171.489-144.928l0.278,46.458
								c0,0,6.489,101.121-171.565,149.145L664.203,806.995z"/>
						</g>
						<g>
							<path style="fill:#917AA5;" d="M503.57,755.563l106.297-154.775l83.422,14.644l142.353,37.192l0.051,9.443
								c-7.044,93.521-129.425,133.793-171.489,144.928c0,0-0.025-0.025-0.025,0L503.57,755.563z"/>
						</g>
						<g>
							<path style="fill:#917AA5;" d="M505.54,536.354c25.249,5.782,61.354,17.169,48.174,25.224
								c-45.296,27.748-91.249-4.696-99.48-11.059c-0.682-0.505-0.631-1.515,0.076-1.969
								C460.218,544.838,483.674,531.33,505.54,536.354z"/>
						</g>
					</g>
				</g>
				<g>
					<g id="XMLID_149_">
						<g>
							<g>
								<polygon style="fill:#9C3748;" points="759.756,606.596 759.756,632.981 726.453,621.492 								"/>
							</g>
							<g>
								<polygon style="fill:#9C3748;" points="759.756,540.62 759.756,606.596 726.453,621.492 702.189,613.11 727.362,552.311 
																	"/>
							</g>
							<g>
								<polygon style="fill:#D56A72;" points="555.973,502.141 727.362,552.311 702.189,613.11 690.196,608.969 694.134,610.307 
									711.354,567.536 555.973,519.487 551.327,530.067 546.606,527.996 545.47,523.224 								"/>
							</g>
							<g>
								<path style="fill:#853239;" d="M727.362,552.311l-171.389-50.17l13.937-3.863l62.869,15.882
									c8.105,0.934,13.458-0.53,16.917-3.207l110.059,29.667L727.362,552.311z"/>
							</g>
							<g>
								<polygon style="fill:#9C3748;" points="726.453,621.492 692.417,636.692 702.189,613.11 								"/>
							</g>
							<g>
								<polygon style="fill:#6D6E70;" points="711.354,567.536 694.134,610.307 690.196,608.969 690.069,608.919 590.059,574.403 
									589.301,574.681 589.276,574.681 539.233,557.663 551.327,530.067 555.973,519.487 								"/>
							</g>
							<g>
								<polygon style="fill:#9C3748;" points="692.417,636.692 726.453,621.492 759.756,632.981 505.551,754.629 505.551,720.24 
									538.375,705.571 645.884,657.497 692.392,636.718 								"/>
							</g>
							<g>
								<polygon style="fill:#D56A72;" points="692.392,636.718 555.595,587.28 589.276,574.681 589.301,574.681 690.069,608.919 
									690.196,608.969 702.189,613.11 692.417,636.692 								"/>
							</g>
							<g>
								<polygon style="fill:#D56A72;" points="555.595,587.28 692.392,636.718 645.884,657.497 643.107,651.311 643.107,646.64 
									643.334,646.539 643.107,646.438 643.107,635.177 601.244,618.26 591.094,622.452 591.094,613.792 553.878,598.163 
									539.309,603.768 539.309,593.365 								"/>
							</g>
							<g>
								<polygon style="fill:#6D6E70;" points="690.069,608.919 589.301,574.681 590.059,574.403 								"/>
							</g>
							<g>
								<path style="fill:#333523;" d="M655.731,498.455c0.354-4.04-0.278-7.6-0.53-8.938c3.156-2.626,4.318-0.858,4.721,1.136
									c0.429,2.146-0.101,4.494-1.641,6.06C657.549,497.47,656.69,498.051,655.731,498.455z"/>
							</g>
							<g>
								<polygon style="fill:#D56A72;" points="566.477,635.076 566.704,635.177 576.602,631.137 576.602,639.798 576.829,639.798 
									618.414,657.421 618.641,657.522 643.107,646.64 643.107,651.311 645.884,657.497 538.375,705.571 535.598,699.385 
									535.598,695.926 535.598,683.276 509.288,671.435 511.182,667.218 511.182,658.204 521.483,654.139 521.483,663.33 
									564.053,682.922 589.63,671.864 589.63,659.845 546.985,641.111 536.658,645.251 536.658,636.162 498.785,618.866 
									483.711,624.497 483.711,614.12 502.37,607.151 515.979,613.009 516.484,613.236 529.386,607.984 529.386,618.967 
									529.614,618.967 								"/>
							</g>
							<g>
								<polygon style="fill:#C64747;" points="643.107,646.438 643.107,646.64 618.641,657.522 618.414,657.421 618.414,646.16 
									629.826,641.085 								"/>
							</g>
							<g>
								<polygon style="fill:#C64747;" points="643.107,635.177 643.107,646.438 629.826,641.085 								"/>
							</g>
							<g>
								<path style="fill:#333523;" d="M655.731,498.455c-7.246,3.383-19.568-1.389-19.568-1.389
									c-2.525-2.171-1.894-3.737-0.631-4.747c1.388-1.162,3.358-1.389,5.075-0.783c6.312,2.272,10.68,2.272,10.68,2.272
									c1.565-2.045,2.853-3.434,3.913-4.292C655.453,490.855,656.085,494.415,655.731,498.455z"/>
							</g>
							<g>
								<path style="fill:#DAD5CE;" d="M632.78,514.16c0,0-7.019-3.384-10.327-10.554l27.243,7.347
									C646.237,513.63,640.885,515.094,632.78,514.16z"/>
							</g>
							<g>
								<path style="fill:#DAD5CE;" d="M649.697,510.953l-27.243-7.347c-1.793-3.787-2.525-8.66-0.631-14.619
									c2.979-9.393,10.933-13.534,18.432-12.675c6.312,0.707,12.321,4.974,14.821,12.675c0,0,0.05,0.202,0.126,0.53
									c-1.061,0.858-2.348,2.247-3.913,4.292c0,0-4.368,0-10.68-2.272c-1.717-0.606-3.687-0.379-5.075,0.783
									c-1.263,1.01-1.894,2.575,0.631,4.747c0,0,12.322,4.772,19.568,1.389C655.378,502.823,653.913,507.747,649.697,510.953z"/>
							</g>
							<g>
								<path style="fill:#E6E2D5;" d="M632.78,514.16l-62.869-15.882l16.209-4.469l36.333,9.797
									C625.761,510.776,632.78,514.16,632.78,514.16z"/>
							</g>
							<g>
								<polygon style="fill:#E7B2B4;" points="629.826,641.085 618.414,646.16 590.312,634.243 601.471,629.648 								"/>
							</g>
							<g>
								<polygon style="fill:#D74D4C;" points="618.414,646.16 618.414,657.421 576.829,639.798 590.312,634.243 								"/>
							</g>
							<g>
								<polygon style="fill:#E7B2B4;" points="591.094,625.254 591.321,625.153 591.094,625.052 591.094,622.452 601.244,618.26 
									643.107,635.177 629.826,641.085 601.471,629.648 590.312,634.243 579.859,629.825 								"/>
							</g>
							<g>
								<polygon style="fill:#E7B2B4;" points="591.094,625.052 591.094,625.254 579.859,629.825 576.602,628.436 587.964,623.739 
																	"/>
							</g>
							<g>
								<polygon style="fill:#E7B2B4;" points="591.094,622.452 591.094,625.052 587.964,623.739 								"/>
							</g>
							<g>
								<polygon style="fill:#C64747;" points="591.094,613.792 591.094,622.452 587.964,623.739 577.485,619.346 								"/>
							</g>
							<g>
								<polygon style="fill:#E7B2B4;" points="539.309,603.945 539.309,603.768 553.878,598.163 591.094,613.792 577.485,619.346 
									554.105,609.524 543.298,613.691 529.841,607.807 								"/>
							</g>
							<g>
								<polygon style="fill:#D74D4C;" points="590.312,634.243 576.829,639.798 576.602,639.798 576.602,631.137 579.859,629.825 
																	"/>
							</g>
							<g>
								<polygon style="fill:#C64747;" points="589.63,659.845 589.63,671.864 575.844,665.804 								"/>
							</g>
							<g>
								<polygon style="fill:#C64747;" points="589.63,671.864 564.053,682.922 564.053,670.904 575.844,665.804 								"/>
							</g>
							<g>
								<polygon style="fill:#C64747;" points="587.964,623.739 576.602,628.436 576.602,631.137 566.704,635.177 566.477,635.076 
									566.477,623.815 577.485,619.346 								"/>
							</g>
							<g>
								<path style="fill:#E6E2D5;" d="M569.911,498.278h-0.026c0,0-14.594-2.398-12.17-19.719c0.151-0.985,0.328-1.995,0.581-3.055
									c0.253-1.06,0.556-2.045,0.884-2.929c1.363-3.484,3.383-5.656,5.529-7.019l0.025-0.026c0.278-0.076,2.071-0.732,4.848-1.894
									c2.878-0.53,5.1-0.126,5.1-0.126l67.111,12.574c-0.555,0.101-1.061,0.177-1.54,0.227
									c-7.499-0.859-15.452,3.282-18.432,12.675c-1.894,5.958-1.162,10.832,0.631,14.619l-36.333-9.797L569.911,498.278z"/>
							</g>
							<g>
								<polygon style="fill:#D74D4C;" points="576.602,628.436 579.859,629.825 576.602,631.137 								"/>
							</g>
							<g>
								<polygon style="fill:#E7B2B4;" points="577.485,619.346 566.477,623.815 543.298,613.691 554.105,609.524 								"/>
							</g>
							<g>
								<path style="fill:#E6E2D5;" d="M641.794,476.085l-67.111-12.574c0,0-2.222-0.404-5.1,0.126
									c11.513-4.848,39.54-18.532,40.499-37.57c1.212-23.986,19.441-37.242,37.166-42.292l73.247,12.625
									c0,0-32.192,19.113-32.192,33.631C688.302,462.223,654.974,473.913,641.794,476.085z"/>
							</g>
							<g>
								<polygon style="fill:#E7B2B4;" points="575.844,665.804 564.053,670.904 535.446,657.724 546.985,653.104 								"/>
							</g>
							<g>
								<polygon style="fill:#D74D4C;" points="566.477,623.815 566.477,635.076 529.614,618.967 543.298,613.691 								"/>
							</g>
							<g>
								<path style="fill:#E6E2D5;" d="M564.734,465.531c1.641-1.035,3.333-1.591,4.848-1.894
									C566.805,464.799,565.012,465.455,564.734,465.531z"/>
							</g>
							<g>
								<polygon style="fill:#D74D4C;" points="564.053,670.904 564.053,682.922 521.483,663.33 535.446,657.724 								"/>
							</g>
							<g>
								<polygon style="fill:#D56A72;" points="551.327,530.067 539.233,557.663 589.276,574.681 555.595,587.28 519.994,574.403 
									540.976,532.238 545.47,523.224 546.606,527.996 								"/>
							</g>
							<g>
								<polygon style="fill:#D74D4C;" points="543.298,613.691 529.614,618.967 529.386,618.967 529.386,607.984 529.841,607.807 
																	"/>
							</g>
							<g>
								<path style="fill:#333523;" d="M549.863,477.171c-2.07-0.354-4.115,0.808-4.848,2.777l-4.696,12.649
									c-0.858,2.298-1.01,4.798-0.429,7.196l5.58,23.431l-4.494,9.014l-8.307-31.839c-0.783-2.979-0.581-6.135,0.606-8.988
									l6.539-15.73c1.389-3.383,4.898-5.353,8.509-4.797l10.857,1.691c-0.328,0.884-0.631,1.869-0.884,2.929
									c-0.252,1.061-0.429,2.07-0.581,3.055L549.863,477.171z"/>
							</g>
							<g>
								<polygon style="fill:#E7B2B4;" points="539.309,603.768 539.309,603.945 539.107,603.869 								"/>
							</g>
							<g>
								<polygon style="fill:#C64747;" points="539.309,593.365 539.309,603.768 539.107,603.869 525.978,598.339 								"/>
							</g>
							<g>
								<polygon style="fill:#C64747;" points="525.978,598.339 539.107,603.869 529.386,607.605 529.386,607.984 516.484,613.236 
									515.979,613.009 515.979,602.076 								"/>
							</g>
							<g>
								<polygon style="fill:#D56A72;" points="539.309,593.365 525.978,598.339 525.801,598.263 539.006,593.214 506.991,578.973 
									519.994,574.403 555.595,587.28 								"/>
							</g>
							<g>
								<polygon style="fill:#E7B2B4;" points="536.658,648.155 536.658,645.251 546.985,641.111 589.63,659.845 575.844,665.804 
									546.985,653.104 535.446,657.724 524.791,652.826 								"/>
							</g>
							<g>
								<polygon style="fill:#E7B2B4;" points="536.658,645.251 536.658,648.155 533.249,646.59 								"/>
							</g>
							<g>
								<polygon style="fill:#C64747;" points="536.658,636.162 536.658,645.251 533.249,646.59 522.569,641.717 								"/>
							</g>
							<g>
								<polygon style="fill:#E7B2B4;" points="483.711,624.648 483.711,624.497 498.785,618.866 536.658,636.162 522.569,641.717 
									498.785,630.86 487.625,635.026 473.915,628.511 								"/>
							</g>
							<g>
								<polygon style="fill:#E7B2B4;" points="536.658,648.155 524.791,652.826 521.483,651.311 533.249,646.59 								"/>
							</g>
							<g>
								<polygon style="fill:#C64747;" points="535.598,683.276 535.598,695.926 521.433,689.538 								"/>
							</g>
							<g>
								<polygon style="fill:#E7B2B4;" points="535.598,683.276 521.433,689.538 491.791,676.206 482.449,680.019 481.187,676.913 
									481.187,670.98 481.187,667.899 491.791,663.557 509.288,671.435 								"/>
							</g>
							<g>
								<polygon style="fill:#C64747;" points="535.598,695.926 509.314,707.54 509.314,694.916 521.433,689.538 								"/>
							</g>
							<g>
								<polygon style="fill:#D74D4C;" points="535.446,657.724 521.483,663.33 521.483,654.139 524.791,652.826 								"/>
							</g>
							<g>
								<polygon style="fill:#C64747;" points="533.249,646.59 521.483,651.311 521.483,654.139 511.182,658.204 511.182,646.211 
									522.569,641.717 								"/>
							</g>
							<g>
								<polygon style="fill:#E7B2B4;" points="525.801,598.263 515.979,602.026 493.382,591.699 502.118,588.316 								"/>
							</g>
							<g>
								<polygon style="fill:#D74D4C;" points="524.791,652.826 521.483,654.139 521.483,651.311 								"/>
							</g>
							<g>
								<polygon style="fill:#E7B2B4;" points="521.433,689.538 509.314,694.916 479.924,681.079 482.449,680.019 491.791,676.206 
																	"/>
							</g>
							<g>
								<polygon style="fill:#D74D4C;" points="515.979,602.076 515.979,613.009 502.37,607.151 								"/>
							</g>
							<g>
								<polygon style="fill:#D74D4C;" points="515.979,602.026 515.979,602.076 502.37,607.151 479.192,597.152 493.382,591.699 
																	"/>
							</g>
							<g>
								<polygon style="fill:#E7B2B4;" points="511.182,646.211 487.625,635.026 498.785,630.86 522.569,641.717 								"/>
							</g>
							<g>
								<polygon style="fill:#D74D4C;" points="511.182,646.211 511.182,658.204 473.46,640.303 487.625,635.026 								"/>
							</g>
							<g>
								<polygon style="fill:#D56A72;" points="505.551,708.525 506.612,706.278 509.314,707.54 535.598,695.926 535.598,699.385 
									538.375,705.571 505.551,720.24 								"/>
							</g>
							<g>
								<polygon style="fill:#D74D4C;" points="509.314,694.916 509.314,707.54 506.612,706.278 465.583,686.937 479.924,681.079 
																	"/>
							</g>
							<g>
								<polygon style="fill:#D56A72;" points="455.003,681.559 465.583,677.292 465.583,686.937 506.612,706.278 505.551,708.525 
									505.551,720.24 505.451,720.291 373.248,655.376 388.852,649.544 402.486,656.083 416.246,650.529 416.246,662.724 								
									"/>
							</g>
							<g>
								<polygon style="fill:#B8464F;" points="505.551,720.24 505.551,754.629 503.582,755.563 338.203,668.455 373.248,655.376 
									505.451,720.291 								"/>
							</g>
							<g>
								<polygon style="fill:#E7B2B4;" points="502.118,588.316 493.382,591.699 483.535,587.179 506.991,578.973 539.006,593.214 
									525.801,598.263 								"/>
							</g>
							<g>
								<polygon style="fill:#E7B2B4;" points="506.991,578.973 483.535,587.179 479.04,585.134 502.143,576.802 								"/>
							</g>
							<g>
								<polygon style="fill:#D74D4C;" points="493.382,591.699 479.192,597.152 479.04,597.152 479.04,588.77 483.535,587.179 
																	"/>
							</g>
							<g>
								<polygon style="fill:#D74D4C;" points="487.625,635.026 473.46,640.303 473.46,628.688 473.915,628.511 								"/>
							</g>
							<g>
								<polygon style="fill:#E7B2B4;" points="483.711,624.497 483.711,624.648 483.509,624.547 								"/>
							</g>
							<g>
								<polygon style="fill:#C64747;" points="483.711,614.12 483.711,624.497 483.509,624.547 471.036,618.866 								"/>
							</g>
							<g>
								<polygon style="fill:#C64747;" points="483.711,612.655 483.711,614.12 471.036,618.866 469.622,618.21 								"/>
							</g>
							<g>
								<polygon style="fill:#D74D4C;" points="483.535,587.179 479.04,588.77 479.04,585.134 								"/>
							</g>
							<g>
								<polygon style="fill:#C64747;" points="483.509,624.547 473.46,628.31 473.46,628.688 460.078,633.991 460.078,622.932 
									471.036,618.866 								"/>
							</g>
							<g>
								<polygon style="fill:#E7B2B4;" points="482.449,680.019 479.924,681.079 468.966,675.904 481.161,670.98 481.187,670.98 
									481.187,676.913 								"/>
							</g>
							<g>
								<polygon style="fill:#E7B2B4;" points="477.702,669.339 481.187,667.899 481.187,670.98 481.161,670.98 								"/>
							</g>
							<g>
								<polygon style="fill:#E7B2B4;" points="468.966,675.904 465.583,674.313 477.677,669.339 477.702,669.339 481.161,670.98 
																	"/>
							</g>
							<g>
								<polygon style="fill:#D74D4C;" points="468.966,675.904 479.924,681.079 465.583,686.937 465.583,677.292 								"/>
							</g>
							<g>
								<polygon style="fill:#D56A72;" points="479.04,597.152 479.192,597.152 502.37,607.151 483.711,614.12 483.711,612.655 
									452.1,598.213 479.04,588.77 								"/>
							</g>
							<g>
								<polygon style="fill:#C64747;" points="481.187,667.899 477.702,669.339 477.677,669.339 466.719,664.213 481.161,658.356 
									481.187,658.356 								"/>
							</g>
							<g>
								<polygon style="fill:#E7B2B4;" points="469.622,618.21 460.078,621.972 436.395,610.888 445.838,607.353 								"/>
							</g>
							<g>
								<polygon style="fill:#D74D4C;" points="465.583,677.292 465.583,674.313 468.966,675.904 								"/>
							</g>
							<g>
								<polygon style="fill:#E7B2B4;" points="426.775,646.261 426.775,646.085 442.278,640.151 481.161,658.356 466.719,664.213 
									466.693,664.213 442.278,652.775 430.79,657.169 416.726,650.326 								"/>
							</g>
							<g>
								<polygon style="fill:#C64747;" points="465.583,677.292 455.003,681.559 455.003,668.935 466.693,664.213 466.719,664.213 
									477.677,669.339 465.583,674.313 								"/>
							</g>
							<g>
								<polygon style="fill:#C64747;" points="471.036,618.866 460.078,622.932 460.078,621.972 469.622,618.21 								"/>
							</g>
							<g>
								<polygon style="fill:#D74D4C;" points="460.078,622.932 460.078,633.991 446.974,627.83 								"/>
							</g>
							<g>
								<polygon style="fill:#D74D4C;" points="460.078,621.972 460.078,622.932 446.974,627.83 422.129,616.19 436.395,610.888 
																	"/>
							</g>
							<g>
								<polygon style="fill:#E7B2B4;" points="455.003,668.935 430.79,657.169 442.278,652.775 466.693,664.213 								"/>
							</g>
							<g>
								<polygon style="fill:#D74D4C;" points="416.246,662.724 430.79,657.169 455.003,668.935 455.003,681.559 								"/>
							</g>
							<g>
								<polygon style="fill:#E7B2B4;" points="452.1,598.213 427.659,606.798 422.129,604.197 445.838,595.36 								"/>
							</g>
							<g>
								<polygon style="fill:#E7B2B4;" points="445.838,607.353 436.395,610.888 427.659,606.798 452.1,598.213 483.711,612.655 
									469.622,618.21 								"/>
							</g>
							<g>
								<polygon style="fill:#D56A72;" points="473.46,640.303 511.182,658.204 511.182,667.218 509.288,671.435 491.791,663.557 
									481.187,667.899 481.187,658.356 481.161,658.356 442.278,640.151 426.775,646.085 426.775,635.379 446.974,627.83 
									460.078,633.991 473.46,628.688 								"/>
							</g>
							<g>
								<polygon style="fill:#D74D4C;" points="427.659,606.798 436.395,610.888 422.129,616.19 422.129,608.716 								"/>
							</g>
							<g>
								<polygon style="fill:#D74D4C;" points="416.246,662.724 416.246,650.529 416.726,650.326 430.79,657.169 								"/>
							</g>
							<g>
								<polygon style="fill:#D74D4C;" points="422.129,604.197 427.659,606.798 422.129,608.716 								"/>
							</g>
							<g>
								<polygon style="fill:#8BA33F;" points="426.775,633.612 426.775,635.379 413.848,640.202 412.283,639.469 								"/>
							</g>
							<g>
								<polygon style="fill:#8BA33F;" points="426.548,646.16 413.848,640.202 426.775,635.379 426.775,646.085 								"/>
							</g>
							<g>
								<polygon style="fill:#8BA33F;" points="416.246,650.099 416.246,650.529 402.486,656.083 402.486,644.444 413.848,640.202 
									426.548,646.16 								"/>
							</g>
							<g>
								<polygon style="fill:#D56A72;" points="426.775,633.612 394.356,618.463 422.129,608.716 422.129,616.19 446.974,627.83 
									426.775,635.379 								"/>
							</g>
							<g>
								<polygon style="fill:#B1CF73;" points="412.283,639.469 402.486,643.433 378.171,631.768 387.867,628.057 								"/>
							</g>
							<g>
								<polygon style="fill:#8BA33F;" points="402.486,643.433 412.283,639.469 413.848,640.202 402.486,644.444 								"/>
							</g>
							<g>
								<polygon style="fill:#9BBE4F;" points="402.486,644.444 402.486,656.083 388.852,649.544 								"/>
							</g>
							<g>
								<polygon style="fill:#9BBE4F;" points="402.486,643.433 402.486,644.444 388.852,649.544 363.502,637.349 378.171,631.768 
																	"/>
							</g>
							<g>
								<polygon style="fill:#B1CF73;" points="394.356,618.463 368.981,627.35 363.502,624.724 387.867,615.433 								"/>
							</g>
							<g>
								<polygon style="fill:#D56A72;" points="363.502,637.349 388.852,649.544 373.248,655.376 338.203,638.157 363.502,629.294 
																	"/>
							</g>
							<g>
								<polygon style="fill:#B1CF73;" points="387.867,628.057 378.171,631.768 368.981,627.35 394.356,618.463 426.775,633.612 
									412.283,639.469 								"/>
							</g>
							<g>
								<polygon style="fill:#9BBE4F;" points="378.171,631.768 363.502,637.349 363.502,629.294 368.981,627.35 								"/>
							</g>
							<g>
								<polygon style="fill:#B8464F;" points="338.203,638.157 373.248,655.376 338.203,668.455 								"/>
							</g>
							<g>
								<polygon style="fill:#9BBE4F;" points="368.981,627.35 363.502,629.294 363.502,624.724 								"/>
							</g>
						</g>
					</g>
				</g>
				<g>
					<g>
						<g>
							<path style="fill:#F4F2ED;" d="M543.661,343.289l-4.121-19.519l-4.122,19.519c-1.932,9.15-5.439,17.069-10.055,22.704l0,0
								l0,0c4.425,2.175,7.92,8.027,9.301,15.576l4.876,26.647l4.876-26.647c1.381-7.549,4.875-13.401,9.301-15.576l0,0l0,0
								C549.101,360.358,545.593,352.438,543.661,343.289z"/>
						</g>
					</g>
				</g>
				<g>
					<g>
						<g>
							<path style="fill:#F4F2ED;" d="M697.415,271.751l-4.122-19.519l-4.121,19.519c-1.932,9.149-5.439,17.069-10.055,22.704l0,0
								l0,0c4.425,2.175,7.919,8.027,9.301,15.576l4.876,26.647l4.876-26.647c1.382-7.549,4.875-13.401,9.301-15.576l0,0l0,0
								C702.854,288.82,699.347,280.9,697.415,271.751z"/>
						</g>
					</g>
				</g>
				<g>
					<g>
						<g>
							<path style="fill:#F4F2ED;" d="M761.249,491.75l-4.121-19.519l-4.122,19.519c-1.932,9.15-5.439,17.069-10.055,22.704l0,0l0,0
								c4.426,2.175,7.92,8.027,9.301,15.576l4.876,26.647l4.876-26.647c1.381-7.549,4.875-13.401,9.301-15.576l0,0l0,0
								C766.689,508.819,763.181,500.9,761.249,491.75z"/>
						</g>
					</g>
				</g>
				<g>
					<g>
						<g>
							<path style="fill:#F4F2ED;" d="M430.262,463.897l-3.487-16.514l-3.487,16.514c-1.634,7.74-4.602,14.441-8.507,19.208l0,0l0,0
								c3.744,1.84,6.7,6.79,7.869,13.177l4.125,22.544l4.125-22.544c1.168-6.387,4.125-11.337,7.869-13.177l0,0l0,0
								C434.864,478.338,431.896,471.638,430.262,463.897z"/>
						</g>
					</g>
				</g>
			</g>
			<g id="XMLID_148_">
				<g>
					<g>
						<path style="fill:#E0B500;" d="M733.713,727.613v12.17c0-2.146-1.01-4.217-2.853-6.085
							C732.703,731.83,733.713,729.76,733.713,727.613z"/>
					</g>
					<g>
						<path style="fill:#D1A900;" d="M733.713,714.534v13.079c0-2.323-1.187-4.545-3.308-6.514
							C732.526,719.104,733.713,716.883,733.713,714.534z"/>
					</g>
					<g>
						<path style="fill:#C9A200;" d="M733.713,702.364v12.17c0-2.146-1.01-4.192-2.853-6.06
							C732.703,706.606,733.713,704.536,733.713,702.364z"/>
					</g>
					<g>
						<path style="fill:#D1A900;" d="M733.713,689.26v13.104c0-2.348-1.187-4.57-3.333-6.539
							C732.526,693.83,733.713,691.608,733.713,689.26z"/>
					</g>
					<g>
						<path style="fill:#E0B500;" d="M733.713,677.09v12.17c0-2.146-1.01-4.217-2.853-6.085
							C732.703,681.307,733.713,679.262,733.713,677.09z"/>
					</g>
					<g>
						<path style="fill:#FFCE00;" d="M733.713,677.09c0,2.171-1.01,4.217-2.853,6.085c-5.529-5.706-18.659-9.721-33.985-9.721
							c-15.301,0-28.43,4.014-33.985,9.721c-1.818-1.869-2.828-3.914-2.828-6.085c0-8.736,16.487-15.805,36.813-15.805
							C717.225,661.285,733.713,668.354,733.713,677.09z"/>
					</g>
					<g>
						<path style="fill:#E0B500;" d="M730.86,683.175c1.843,1.868,2.853,3.939,2.853,6.085c0,2.348-1.187,4.57-3.333,6.565
							c-2.575-2.449-6.539-4.52-11.438-6.085C724.169,688.048,728.31,685.801,730.86,683.175z"/>
					</g>
					<g>
						<path style="fill:#D1A900;" d="M733.713,702.364c0,2.172-1.01,4.242-2.853,6.11c-2.525-2.626-6.666-4.898-11.917-6.565
							c4.898-1.591,8.862-3.661,11.438-6.085C732.526,697.794,733.713,700.016,733.713,702.364z"/>
					</g>
					<g>
						<path style="fill:#C9A200;" d="M730.86,708.475c1.843,1.868,2.853,3.913,2.853,6.06c0,2.348-1.187,4.57-3.308,6.564
							c-2.575-2.449-6.514-4.519-11.387-6.085C724.194,713.323,728.335,711.075,730.86,708.475z"/>
					</g>
					<g>
						<path style="fill:#D1A900;" d="M733.713,727.613c0,2.146-1.01,4.217-2.853,6.085c-2.525-2.601-6.666-4.848-11.842-6.514
							c4.873-1.591,8.812-3.686,11.387-6.085C732.526,723.068,733.713,725.29,733.713,727.613z"/>
					</g>
					<g>
						<path style="fill:#E0B500;" d="M730.86,733.698c1.843,1.868,2.853,3.939,2.853,6.085c0,8.711-16.488,15.78-36.838,15.78
							c-20.326,0-36.813-7.07-36.813-15.78c0-2.146,1.01-4.217,2.828-6.085c5.58,5.706,18.684,9.695,33.985,9.695
							S725.305,739.404,730.86,733.698z"/>
					</g>
					<g>
						<path style="fill:#FFCE00;" d="M696.875,673.455c15.326,0,28.455,4.014,33.985,9.721c-2.55,2.626-6.691,4.873-11.917,6.565
							c-6.135-1.995-13.786-3.156-22.067-3.156c-8.256,0-15.907,1.161-22.042,3.156c-5.227-1.692-9.367-3.939-11.943-6.565
							C668.445,677.469,681.574,673.455,696.875,673.455z"/>
					</g>
					<g>
						<path style="fill:#D1A900;" d="M719.018,727.184c5.176,1.666,9.317,3.913,11.842,6.514
							c-5.555,5.706-18.684,9.695-33.985,9.695s-28.405-3.989-33.985-9.695c2.55-2.601,6.666-4.848,11.867-6.514
							c6.161,1.969,13.836,3.156,22.118,3.156C705.182,730.34,712.857,729.154,719.018,727.184z"/>
					</g>
					<g>
						<path style="fill:#FFCE00;" d="M718.942,689.74c-6.161,1.969-13.786,3.131-22.067,3.131c-8.256,0-15.907-1.162-22.042-3.131
							c6.135-1.995,13.786-3.156,22.042-3.156C705.156,686.584,712.807,687.745,718.942,689.74z"/>
					</g>
					<g>
						<path style="fill:#E0B500;" d="M718.942,701.91c-6.161,1.969-13.786,3.131-22.067,3.131c-8.256,0-15.907-1.161-22.042-3.131
							c6.135-1.995,13.786-3.156,22.042-3.156C705.156,698.754,712.782,699.915,718.942,701.91z"/>
					</g>
					<g>
						<path style="fill:#D1A900;" d="M719.018,715.014c-6.161,1.969-13.836,3.156-22.143,3.156c-8.282,0-15.957-1.187-22.118-3.156
							c6.161-1.995,13.836-3.181,22.118-3.181C705.182,711.833,712.857,713.019,719.018,715.014z"/>
					</g>
					<g>
						<path style="fill:#C9A200;" d="M696.875,724.003c8.307,0,15.982,1.187,22.143,3.181c-6.161,1.969-13.836,3.156-22.143,3.156
							c-8.282,0-15.957-1.187-22.118-3.156C680.918,725.189,688.593,724.003,696.875,724.003z"/>
					</g>
					<g>
						<path style="fill:#C9A200;" d="M719.018,727.184c-6.161-1.995-13.836-3.181-22.143-3.181c-8.282,0-15.957,1.187-22.118,3.181
							c-4.898-1.591-8.837-3.686-11.387-6.085c2.55-2.424,6.489-4.519,11.387-6.085c6.161,1.969,13.836,3.156,22.118,3.156
							c8.307,0,15.982-1.187,22.143-3.156c4.873,1.565,8.812,3.636,11.387,6.085C727.83,723.498,723.891,725.593,719.018,727.184z"
							/>
					</g>
					<g>
						<path style="fill:#D1A900;" d="M696.875,711.833c-8.282,0-15.957,1.187-22.118,3.181c-5.201-1.692-9.317-3.939-11.867-6.539
							c2.55-2.626,6.691-4.898,11.943-6.565c6.135,1.969,13.786,3.131,22.042,3.131c8.281,0,15.907-1.161,22.067-3.131
							c5.252,1.667,9.393,3.939,11.917,6.565c-2.525,2.601-6.666,4.848-11.842,6.539
							C712.857,713.019,705.182,711.833,696.875,711.833z"/>
					</g>
					<g>
						<path style="fill:#E0B500;" d="M696.875,692.871c8.281,0,15.907-1.162,22.067-3.131c4.898,1.566,8.862,3.636,11.438,6.085
							c-2.575,2.424-6.539,4.494-11.438,6.085c-6.161-1.995-13.786-3.156-22.067-3.156c-8.256,0-15.907,1.162-22.042,3.156
							c-4.898-1.591-8.862-3.686-11.438-6.085c2.575-2.424,6.539-4.52,11.438-6.085
							C680.968,691.709,688.619,692.871,696.875,692.871z"/>
					</g>
					<g>
						<path style="fill:#E0B500;" d="M662.89,683.175c2.575,2.626,6.716,4.873,11.943,6.565c-4.898,1.566-8.862,3.661-11.438,6.085
							c-2.146-1.995-3.333-4.217-3.333-6.565C660.062,687.114,661.072,685.044,662.89,683.175z"/>
					</g>
					<g>
						<path style="fill:#D1A900;" d="M663.395,695.825c2.575,2.398,6.539,4.494,11.438,6.085c-5.252,1.667-9.393,3.939-11.943,6.565
							c-1.818-1.868-2.828-3.939-2.828-6.11C660.062,700.041,661.249,697.794,663.395,695.825z"/>
					</g>
					<g>
						<path style="fill:#C9A200;" d="M662.89,708.475c2.55,2.601,6.666,4.848,11.867,6.539c-4.898,1.565-8.837,3.661-11.387,6.085
							c-2.121-1.995-3.308-4.216-3.308-6.564C660.062,712.388,661.072,710.343,662.89,708.475z"/>
					</g>
					<g>
						<path style="fill:#D1A900;" d="M663.37,721.099c2.55,2.399,6.489,4.495,11.387,6.085c-5.201,1.666-9.317,3.913-11.867,6.514
							c-1.818-1.869-2.828-3.939-2.828-6.085C660.062,725.29,661.249,723.068,663.37,721.099z"/>
					</g>
					<g>
						<path style="fill:#E0B500;" d="M660.062,677.09c0,2.171,1.01,4.217,2.828,6.085c-1.818,1.868-2.828,3.939-2.828,6.085V677.09z
							"/>
					</g>
					<g>
						<path style="fill:#D1A900;" d="M660.062,689.26c0,2.348,1.187,4.57,3.333,6.565c-2.146,1.969-3.333,4.216-3.333,6.539V689.26z
							"/>
					</g>
					<g>
						<path style="fill:#C9A200;" d="M660.062,702.364c0,2.172,1.01,4.242,2.828,6.11c-1.818,1.868-2.828,3.913-2.828,6.06V702.364z
							"/>
					</g>
					<g>
						<path style="fill:#D1A900;" d="M660.062,714.534c0,2.348,1.187,4.57,3.308,6.564c-2.121,1.969-3.308,4.192-3.308,6.514
							V714.534z"/>
					</g>
					<g>
						<path style="fill:#E0B500;" d="M660.062,727.613c0,2.146,1.01,4.217,2.828,6.085c-1.818,1.868-2.828,3.939-2.828,6.085
							V727.613z"/>
					</g>
				</g>
			</g>
			<g id="XMLID_147_">
				<g>
					<g>
						<path style="fill:#E0B500;" d="M526.547,533.627v12.17c0-2.172-1.01-4.217-2.828-6.085
							C525.537,537.844,526.547,535.799,526.547,533.627z"/>
					</g>
					<g>
						<path style="fill:#D1A900;" d="M526.547,520.573v13.054c0-2.348-1.187-4.545-3.308-6.514
							C525.36,525.118,526.547,522.896,526.547,520.573z"/>
					</g>
					<g>
						<path style="fill:#C9A200;" d="M526.547,508.404v12.17c0-2.146-1.01-4.217-2.828-6.085
							C525.537,512.62,526.547,510.549,526.547,508.404z"/>
					</g>
					<g>
						<path style="fill:#D1A900;" d="M526.547,495.274v13.129c0-2.323-1.187-4.57-3.333-6.565
							C525.36,499.844,526.547,497.597,526.547,495.274z"/>
					</g>
					<g>
						<path style="fill:#E0B500;" d="M526.547,483.104v12.17c0-2.146-1.01-4.217-2.828-6.085
							C525.537,487.321,526.547,485.25,526.547,483.104z"/>
					</g>
					<g>
						<path style="fill:#FFCE00;" d="M526.547,483.104c0,2.146-1.01,4.217-2.828,6.085c-5.58-5.706-18.684-9.696-33.985-9.696
							c-15.301,0-28.405,3.989-33.985,9.696c-1.818-1.869-2.828-3.939-2.828-6.085c0-8.711,16.487-15.78,36.813-15.78
							C510.059,467.324,526.547,474.393,526.547,483.104z"/>
					</g>
					<g>
						<path style="fill:#E0B500;" d="M523.719,489.189c1.818,1.868,2.828,3.939,2.828,6.085c0,2.323-1.187,4.57-3.333,6.565
							c-2.575-2.424-6.54-4.494-11.463-6.085C516.977,494.062,521.143,491.815,523.719,489.189z"/>
					</g>
					<g>
						<path style="fill:#D1A900;" d="M526.547,508.404c0,2.146-1.01,4.217-2.828,6.085c-2.575-2.626-6.742-4.873-11.968-6.564
							c4.924-1.591,8.888-3.661,11.463-6.085C525.36,503.833,526.547,506.081,526.547,508.404z"/>
					</g>
					<g>
						<path style="fill:#C9A200;" d="M523.719,514.488c1.818,1.869,2.828,3.939,2.828,6.085c0,2.323-1.187,4.545-3.308,6.539
							c-2.55-2.424-6.489-4.52-11.387-6.085C517.053,519.336,521.169,517.089,523.719,514.488z"/>
					</g>
					<g>
						<path style="fill:#D1A900;" d="M526.547,533.627c0,2.172-1.01,4.217-2.828,6.085c-2.55-2.601-6.666-4.848-11.867-6.514
							c4.898-1.591,8.837-3.686,11.387-6.085C525.36,529.082,526.547,531.279,526.547,533.627z"/>
					</g>
					<g>
						<path style="fill:#E0B500;" d="M523.719,539.712c1.818,1.868,2.828,3.914,2.828,6.085c0,8.711-16.488,15.78-36.813,15.78
							c-20.325,0-36.813-7.07-36.813-15.78c0-2.172,1.01-4.217,2.828-6.085c5.58,5.706,18.684,9.695,33.985,9.695
							C505.035,549.407,518.139,545.418,523.719,539.712z"/>
					</g>
					<g>
						<path style="fill:#FFCE00;" d="M489.734,479.494c15.301,0,28.405,3.989,33.985,9.696c-2.575,2.626-6.742,4.873-11.968,6.564
							c-6.135-1.969-13.76-3.131-22.017-3.131c-8.256,0-15.882,1.161-22.017,3.131c-5.227-1.692-9.393-3.939-11.968-6.564
							C461.329,483.483,474.433,479.494,489.734,479.494z"/>
					</g>
					<g>
						<path style="fill:#D1A900;" d="M511.852,533.198c5.201,1.666,9.317,3.914,11.867,6.514c-5.58,5.706-18.684,9.695-33.985,9.695
							c-15.301,0-28.405-3.989-33.985-9.695c2.55-2.601,6.666-4.848,11.867-6.514c6.161,1.969,13.836,3.156,22.118,3.156
							C498.016,536.354,505.691,535.167,511.852,533.198z"/>
					</g>
					<g>
						<path style="fill:#FFCE00;" d="M511.751,495.754c-6.135,1.969-13.76,3.131-22.017,3.131c-8.256,0-15.882-1.162-22.017-3.131
							c6.135-1.969,13.761-3.131,22.017-3.131C497.99,492.623,505.616,493.784,511.751,495.754z"/>
					</g>
					<g>
						<path style="fill:#E0B500;" d="M511.751,507.924c-6.135,1.97-13.76,3.131-22.017,3.131c-8.256,0-15.882-1.161-22.017-3.131
							c6.135-1.969,13.761-3.131,22.017-3.131C497.99,504.793,505.616,505.954,511.751,507.924z"/>
					</g>
					<g>
						<path style="fill:#D1A900;" d="M511.852,521.028c-6.161,1.969-13.811,3.156-22.118,3.156c-8.282,0-15.957-1.187-22.118-3.156
							c6.161-1.995,13.836-3.181,22.118-3.181C498.041,517.847,505.691,519.033,511.852,521.028z"/>
					</g>
					<g>
						<path style="fill:#C9A200;" d="M489.734,530.016c8.307,0,15.957,1.187,22.118,3.181c-6.161,1.969-13.836,3.156-22.118,3.156
							c-8.282,0-15.957-1.187-22.118-3.156C473.777,531.203,481.453,530.016,489.734,530.016z"/>
					</g>
					<g>
						<path style="fill:#C9A200;" d="M489.734,524.184c8.307,0,15.957-1.187,22.118-3.156c4.898,1.565,8.837,3.661,11.387,6.085
							c-2.55,2.399-6.489,4.494-11.387,6.085c-6.161-1.995-13.811-3.181-22.118-3.181c-8.282,0-15.957,1.187-22.118,3.181
							c-4.898-1.591-8.837-3.686-11.387-6.085c2.55-2.424,6.489-4.52,11.387-6.085C473.777,522.997,481.453,524.184,489.734,524.184
							z"/>
					</g>
					<g>
						<path style="fill:#D1A900;" d="M489.734,517.847c-8.282,0-15.957,1.186-22.118,3.181c-5.201-1.692-9.317-3.939-11.867-6.54
							c2.575-2.626,6.742-4.873,11.968-6.564c6.135,1.97,13.761,3.131,22.017,3.131c8.256,0,15.882-1.161,22.017-3.131
							c5.227,1.692,9.393,3.939,11.968,6.564c-2.55,2.601-6.666,4.848-11.867,6.54C505.691,519.033,498.041,517.847,489.734,517.847
							z"/>
					</g>
					<g>
						<path style="fill:#E0B500;" d="M489.734,498.885c8.256,0,15.882-1.162,22.017-3.131c4.924,1.591,8.888,3.661,11.463,6.085
							c-2.575,2.424-6.54,4.494-11.463,6.085c-6.135-1.969-13.76-3.131-22.017-3.131c-8.256,0-15.882,1.161-22.017,3.131
							c-4.924-1.591-8.888-3.661-11.463-6.085c2.575-2.424,6.539-4.494,11.463-6.085
							C473.852,497.723,481.478,498.885,489.734,498.885z"/>
					</g>
					<g>
						<path style="fill:#E0B500;" d="M455.749,489.189c2.575,2.626,6.742,4.873,11.968,6.564c-4.924,1.591-8.888,3.661-11.463,6.085
							c-2.146-1.995-3.333-4.242-3.333-6.565C452.921,493.128,453.931,491.058,455.749,489.189z"/>
					</g>
					<g>
						<path style="fill:#D1A900;" d="M456.254,501.839c2.575,2.424,6.539,4.494,11.463,6.085c-5.227,1.692-9.393,3.939-11.968,6.564
							c-1.818-1.868-2.828-3.939-2.828-6.085C452.921,506.081,454.108,503.833,456.254,501.839z"/>
					</g>
					<g>
						<path style="fill:#C9A200;" d="M455.749,514.488c2.55,2.601,6.666,4.848,11.867,6.54c-4.898,1.565-8.837,3.661-11.387,6.085
							c-2.121-1.995-3.308-4.217-3.308-6.539C452.921,518.427,453.931,516.357,455.749,514.488z"/>
					</g>
					<g>
						<path style="fill:#D1A900;" d="M456.229,527.113c2.55,2.399,6.489,4.494,11.387,6.085c-5.201,1.666-9.317,3.914-11.867,6.514
							c-1.818-1.868-2.828-3.913-2.828-6.085C452.921,531.279,454.108,529.082,456.229,527.113z"/>
					</g>
					<g>
						<path style="fill:#E0B500;" d="M452.921,483.104c0,2.146,1.01,4.217,2.828,6.085c-1.818,1.868-2.828,3.939-2.828,6.085
							V483.104z"/>
					</g>
					<g>
						<path style="fill:#D1A900;" d="M452.921,495.274c0,2.323,1.187,4.57,3.333,6.565c-2.146,1.995-3.333,4.242-3.333,6.565
							V495.274z"/>
					</g>
					<g>
						<path style="fill:#C9A200;" d="M452.921,508.404c0,2.146,1.01,4.217,2.828,6.085c-1.818,1.869-2.828,3.939-2.828,6.085
							V508.404z"/>
					</g>
					<g>
						<path style="fill:#D1A900;" d="M452.921,520.573c0,2.323,1.187,4.545,3.308,6.539c-2.121,1.969-3.308,4.166-3.308,6.514
							V520.573z"/>
					</g>
					<g>
						<path style="fill:#E0B500;" d="M452.921,533.627c0,2.172,1.01,4.217,2.828,6.085c-1.818,1.868-2.828,3.914-2.828,6.085
							V533.627z"/>
					</g>
				</g>
			</g>
			<g id="XMLID_146_">
				<g>
					<g>
						<path style="fill:#9E9B94;" d="M437.141,574.707v12.17c0-2.146-1.01-4.217-2.853-6.085
							C436.131,578.923,437.141,576.853,437.141,574.707z"/>
					</g>
					<g>
						<path style="fill:#8E8B86;" d="M437.141,561.653v13.054c0-2.323-1.187-4.545-3.308-6.514
							C435.954,566.223,437.141,564.001,437.141,561.653z"/>
					</g>
					<g>
						<path style="fill:#9E9B94;" d="M437.141,549.483v12.17c0-2.171-1.01-4.217-2.853-6.085
							C436.131,553.7,437.141,551.655,437.141,549.483z"/>
					</g>
					<g>
						<path style="fill:#CBC6BD;" d="M437.141,549.483c0,2.172-1.01,4.217-2.853,6.085c-5.555-5.706-18.659-9.695-33.96-9.695
							c-15.301,0-28.405,3.989-33.96,9.695c-1.843-1.869-2.853-3.914-2.853-6.085c0-8.736,16.488-15.78,36.813-15.78
							C420.653,533.703,437.141,540.747,437.141,549.483z"/>
					</g>
					<g>
						<path style="fill:#9E9B94;" d="M434.288,555.568c1.843,1.868,2.853,3.913,2.853,6.085c0,2.348-1.187,4.57-3.308,6.539
							c-2.575-2.449-6.514-4.519-11.387-6.085C427.647,560.416,431.763,558.169,434.288,555.568z"/>
					</g>
					<g>
						<path style="fill:#8E8B86;" d="M437.141,574.707c0,2.146-1.01,4.217-2.853,6.085c-2.525-2.601-6.641-4.848-11.842-6.514
							c4.873-1.591,8.812-3.661,11.387-6.085C435.954,570.162,437.141,572.384,437.141,574.707z"/>
					</g>
					<g>
						<path style="fill:#9E9B94;" d="M434.288,580.792c1.843,1.868,2.853,3.939,2.853,6.085c0,8.711-16.488,15.78-36.813,15.78
							c-20.325,0-36.813-7.07-36.813-15.78c0-2.146,1.01-4.217,2.853-6.085c5.555,5.706,18.659,9.695,33.96,9.695
							C415.629,590.487,428.733,586.498,434.288,580.792z"/>
					</g>
					<g>
						<path style="fill:#CBC6BD;" d="M400.328,545.873c15.301,0,28.405,3.989,33.96,9.695c-2.525,2.601-6.641,4.848-11.842,6.539
							c-6.135-1.995-13.811-3.181-22.118-3.181c-8.307,0-15.982,1.187-22.118,3.181c-5.201-1.692-9.317-3.939-11.842-6.539
							C371.923,549.862,385.027,545.873,400.328,545.873z"/>
					</g>
					<g>
						<path style="fill:#9E9B94;" d="M422.446,562.108c4.873,1.566,8.812,3.636,11.387,6.085c-2.575,2.424-6.514,4.495-11.387,6.085
							c-6.135-1.995-13.811-3.181-22.118-3.181c-8.307,0-15.982,1.186-22.118,3.181c-4.873-1.591-8.812-3.661-11.387-6.085
							c2.575-2.449,6.514-4.519,11.387-6.085c6.135,1.969,13.811,3.156,22.118,3.156
							C408.635,565.264,416.311,564.077,422.446,562.108z"/>
					</g>
					<g>
						<path style="fill:#8E8B86;" d="M422.446,574.278c5.201,1.666,9.317,3.913,11.842,6.514c-5.555,5.706-18.659,9.695-33.96,9.695
							c-15.301,0-28.405-3.989-33.96-9.695c2.525-2.601,6.64-4.848,11.842-6.514c6.135,1.969,13.811,3.156,22.118,3.156
							C408.635,577.433,416.311,576.247,422.446,574.278z"/>
					</g>
					<g>
						<path style="fill:#CBC6BD;" d="M400.328,558.926c8.307,0,15.982,1.187,22.118,3.181c-6.135,1.969-13.811,3.156-22.118,3.156
							c-8.307,0-15.982-1.187-22.118-3.156C384.346,560.113,392.021,558.926,400.328,558.926z"/>
					</g>
					<g>
						<path style="fill:#9E9B94;" d="M400.328,571.096c8.307,0,15.982,1.186,22.118,3.181c-6.135,1.969-13.811,3.156-22.118,3.156
							c-8.307,0-15.982-1.186-22.118-3.156C384.346,572.283,392.021,571.096,400.328,571.096z"/>
					</g>
					<g>
						<path style="fill:#9E9B94;" d="M366.369,555.568c2.525,2.601,6.64,4.848,11.842,6.539c-4.873,1.566-8.812,3.636-11.387,6.085
							c-2.121-1.969-3.308-4.191-3.308-6.539C363.516,559.482,364.525,557.437,366.369,555.568z"/>
					</g>
					<g>
						<path style="fill:#8E8B86;" d="M366.823,568.193c2.575,2.424,6.514,4.495,11.387,6.085c-5.201,1.666-9.317,3.913-11.842,6.514
							c-1.843-1.869-2.853-3.939-2.853-6.085C363.516,572.384,364.702,570.162,366.823,568.193z"/>
					</g>
					<g>
						<path style="fill:#9E9B94;" d="M363.516,549.483c0,2.172,1.01,4.217,2.853,6.085c-1.843,1.868-2.853,3.913-2.853,6.085
							V549.483z"/>
					</g>
					<g>
						<path style="fill:#8E8B86;" d="M363.516,561.653c0,2.348,1.187,4.57,3.308,6.539c-2.121,1.969-3.308,4.191-3.308,6.514
							V561.653z"/>
					</g>
					<g>
						<path style="fill:#9E9B94;" d="M363.516,574.707c0,2.146,1.01,4.217,2.853,6.085c-1.843,1.868-2.853,3.939-2.853,6.085
							V574.707z"/>
					</g>
				</g>
			</g>
			<g id="XMLID_145_">
				<g>
					<g>
						<path style="fill:#E0B500;" d="M416.462,754.301c15.023,0,27.647-6.464,31.233-15.149c0.656,1.616,1.01,3.307,1.01,5.05
							c0,11.16-14.442,20.199-32.242,20.199c-17.8,0-32.243-9.039-32.243-20.199c0-1.742,0.354-3.434,1.01-5.05
							C388.815,747.837,401.439,754.301,416.462,754.301z"/>
					</g>
					<g>
						<path style="fill:#FFCE00;" d="M447.695,739.152c-3.585-8.711-16.21-15.149-31.233-15.149s-27.647,6.439-31.233,15.149
							c-0.657-1.616-1.01-3.308-1.01-5.05c0-11.16,14.442-20.224,32.243-20.224c17.8,0,32.242,9.064,32.242,20.224
							C448.705,735.844,448.351,737.536,447.695,739.152z"/>
					</g>
					<g>
						<path style="fill:#FFCE00;" d="M447.695,739.152c-3.585,8.685-16.21,15.149-31.233,15.149s-27.647-6.464-31.233-15.149
							c3.585-8.711,16.21-15.149,31.233-15.149S444.11,730.441,447.695,739.152z"/>
					</g>
				</g>
			</g>
			<g>
				<g>
					<g>
						<g>
							<path style="fill:#D1A900;" d="M500.107,488.402c3.206-1.689,4.588-3.577,3.682-5.16c-1.28-2.237-6.537-3.183-10.815-2.926
								c-0.54,0.032-1.078,0.09-1.616,0.142c-2.22-1.926-4.497-3.833-6.817-5.723c1.898-0.472,4.107-0.583,5.801-0.577
								c1.051,0.004,2.243,0.127,2.439,0.459c0.165,0.279,0.767,0.429,1.343,0.334c0.577-0.094,0.912-0.396,0.747-0.674
								c-0.444-0.753-2.01-1.174-4.409-1.183c-2.73-0.014-5.115,0.246-7.03,0.748c-1.13-0.912-2.243-1.833-3.396-2.735
								c-0.311-0.244-0.98-0.309-1.492-0.144c-0.513,0.164-0.676,0.495-0.365,0.738c1.16,0.909,2.28,1.835,3.418,2.754
								c-0.007,0.003-0.015,0.005-0.022,0.007c-2.57,1.109-3.711,2.965-2.776,4.516c0.935,1.55,3.907,2.726,7.226,2.859
								c1.428,0.058,2.812-0.062,4.161-0.198c2.495,2.18,4.908,4.382,7.26,6.595c-2.625,1.178-5.217,1.849-7.704,1.983
								c-2.509,0.139-5.65-0.416-6.588-1.697c-0.199-0.273-0.817-0.401-1.385-0.293c-0.567,0.111-0.865,0.421-0.665,0.693
								c1.253,1.712,5.071,2.473,8.355,2.372c0.14-0.004,0.28-0.01,0.418-0.017c2.83-0.153,5.704-0.871,8.555-2.095
								c1.189,1.131,2.391,2.259,3.54,3.396c0.191,0.188,0.586,0.29,0.996,0.277c0.153-0.005,0.308-0.025,0.455-0.063
								c0.54-0.141,0.768-0.464,0.507-0.721C502.69,490.843,501.394,489.623,500.107,488.402z M493.132,481.373
								c3.463-0.204,7.625,0.563,8.562,2.201c0.836,1.461-1.043,2.919-2.623,3.834c-2.138-2.005-4.321-4.001-6.575-5.978
								C492.708,481.413,492.919,481.386,493.132,481.373z M486.306,480.779c-2.49-0.1-4.717-0.982-5.42-2.145
								c-0.669-1.111,0.094-2.426,1.843-3.267c2.15,1.754,4.259,3.522,6.324,5.307C488.111,480.759,487.199,480.816,486.306,480.779
								z"/>
						</g>
					</g>
				</g>
			</g>
			<g>
				<g>
					<g>
						<g>
							<path style="fill:#D1A900;" d="M707.403,680.839c3.206-1.689,4.588-3.577,3.682-5.16c-1.28-2.237-6.537-3.183-10.816-2.925
								c-0.54,0.031-1.078,0.09-1.616,0.143c-2.22-1.927-4.497-3.833-6.817-5.724c1.898-0.472,4.107-0.583,5.802-0.577
								c1.05,0.004,2.243,0.127,2.439,0.459c0.164,0.279,0.767,0.429,1.343,0.334c0.577-0.094,0.912-0.395,0.747-0.675
								c-0.444-0.753-2.01-1.173-4.409-1.183c-2.73-0.014-5.115,0.246-7.03,0.748c-1.13-0.912-2.243-1.833-3.396-2.735
								c-0.311-0.244-0.98-0.309-1.492-0.144c-0.513,0.164-0.676,0.495-0.365,0.738c1.16,0.908,2.28,1.835,3.418,2.753
								c-0.007,0.003-0.015,0.005-0.022,0.008c-2.57,1.109-3.711,2.965-2.776,4.516c0.935,1.55,3.907,2.726,7.226,2.859
								c1.428,0.059,2.812-0.061,4.161-0.198c2.495,2.18,4.908,4.381,7.26,6.595c-2.625,1.178-5.217,1.849-7.704,1.983
								c-2.509,0.139-5.65-0.416-6.587-1.697c-0.2-0.273-0.817-0.401-1.386-0.293c-0.567,0.111-0.865,0.421-0.665,0.693
								c1.253,1.712,5.071,2.473,8.355,2.372c0.14-0.004,0.28-0.01,0.418-0.017c2.83-0.153,5.704-0.871,8.555-2.095
								c1.189,1.131,2.391,2.259,3.54,3.396c0.191,0.188,0.586,0.29,0.996,0.278c0.153-0.005,0.308-0.025,0.455-0.063
								c0.54-0.14,0.768-0.464,0.507-0.721C709.987,683.28,708.69,682.06,707.403,680.839z M700.427,673.81
								c3.463-0.204,7.625,0.563,8.563,2.201c0.835,1.461-1.043,2.919-2.624,3.834c-2.138-2.005-4.321-4.001-6.575-5.978
								C700.004,673.85,700.215,673.822,700.427,673.81z M693.602,673.216c-2.489-0.101-4.717-0.983-5.42-2.145
								c-0.669-1.111,0.094-2.426,1.843-3.267c2.15,1.754,4.26,3.522,6.324,5.307C695.407,673.196,694.495,673.253,693.602,673.216z
								"/>
						</g>
					</g>
				</g>
			</g>
			<g>
				<g>
					<g>
						<g>
							<path style="fill:#8E8B86;" d="M408.565,555.415c2.914-1.535,4.169-3.25,3.346-4.689c-1.163-2.033-5.94-2.892-9.827-2.658
								c-0.491,0.029-0.98,0.082-1.469,0.129c-2.017-1.75-4.086-3.482-6.194-5.2c1.725-0.429,3.732-0.53,5.271-0.524
								c0.955,0.004,2.038,0.116,2.216,0.417c0.15,0.253,0.697,0.39,1.22,0.304c0.524-0.085,0.829-0.359,0.679-0.613
								c-0.404-0.684-1.827-1.066-4.006-1.075c-2.481-0.013-4.648,0.224-6.388,0.68c-1.027-0.829-2.038-1.665-3.085-2.485
								c-0.283-0.222-0.891-0.281-1.356-0.131c-0.467,0.149-0.615,0.449-0.332,0.671c1.054,0.825,2.072,1.667,3.106,2.502
								c-0.006,0.003-0.014,0.004-0.02,0.007c-2.335,1.007-3.372,2.694-2.522,4.103c0.85,1.408,3.55,2.477,6.566,2.598
								c1.297,0.053,2.555-0.056,3.78-0.18c2.267,1.981,4.459,3.981,6.597,5.992c-2.385,1.071-4.74,1.68-7,1.802
								c-2.279,0.126-5.133-0.378-5.986-1.542c-0.181-0.248-0.743-0.365-1.259-0.266c-0.515,0.101-0.785,0.382-0.604,0.63
								c1.138,1.556,4.607,2.247,7.592,2.156c0.127-0.004,0.254-0.009,0.38-0.016c2.571-0.139,5.183-0.791,7.773-1.903
								c1.08,1.027,2.173,2.053,3.216,3.085c0.173,0.171,0.532,0.263,0.905,0.252c0.139-0.004,0.28-0.023,0.414-0.057
								c0.491-0.128,0.697-0.421,0.46-0.656C410.912,557.633,409.734,556.524,408.565,555.415z M402.227,549.028
								c3.146-0.185,6.928,0.512,7.78,2c0.759,1.327-0.948,2.652-2.384,3.484c-1.942-1.822-3.926-3.635-5.974-5.432
								C401.842,549.064,402.034,549.039,402.227,549.028z M396.025,548.489c-2.262-0.092-4.286-0.893-4.925-1.949
								c-0.608-1.01,0.086-2.204,1.674-2.968c1.954,1.593,3.87,3.2,5.746,4.822C397.665,548.471,396.836,548.522,396.025,548.489z"
								/>
						</g>
					</g>
				</g>
			</g>
			<g>
				<g>
					<g>
						<g>
							<path style="fill:#D1A900;" d="M425.528,738.118c3.207-1.689,4.588-3.577,3.682-5.16c-1.28-2.237-6.537-3.183-10.815-2.926
								c-0.54,0.032-1.078,0.09-1.617,0.143c-2.22-1.926-4.497-3.833-6.817-5.723c1.898-0.472,4.107-0.583,5.801-0.577
								c1.051,0.004,2.243,0.127,2.439,0.459c0.165,0.278,0.767,0.429,1.343,0.334c0.577-0.094,0.912-0.396,0.747-0.674
								c-0.445-0.753-2.01-1.174-4.409-1.183c-2.731-0.014-5.115,0.246-7.03,0.748c-1.131-0.912-2.243-1.833-3.396-2.735
								c-0.311-0.244-0.98-0.309-1.493-0.144c-0.513,0.164-0.676,0.495-0.365,0.738c1.16,0.908,2.28,1.835,3.418,2.754
								c-0.007,0.003-0.015,0.005-0.022,0.007c-2.57,1.109-3.711,2.965-2.776,4.516c0.935,1.55,3.907,2.726,7.226,2.859
								c1.428,0.058,2.812-0.062,4.161-0.198c2.495,2.18,4.908,4.381,7.261,6.595c-2.626,1.178-5.217,1.849-7.704,1.983
								c-2.509,0.139-5.65-0.416-6.587-1.697c-0.2-0.273-0.817-0.401-1.385-0.293c-0.567,0.111-0.865,0.421-0.665,0.693
								c1.252,1.712,5.071,2.473,8.355,2.372c0.14-0.004,0.28-0.01,0.418-0.017c2.83-0.153,5.704-0.871,8.555-2.095
								c1.188,1.131,2.391,2.259,3.54,3.396c0.191,0.188,0.586,0.29,0.996,0.277c0.153-0.005,0.309-0.025,0.455-0.063
								c0.54-0.141,0.767-0.464,0.507-0.721C428.112,740.559,426.816,739.339,425.528,738.118z M418.553,731.089
								c3.463-0.204,7.625,0.563,8.562,2.201c0.836,1.461-1.043,2.919-2.624,3.834c-2.138-2.005-4.32-4.001-6.575-5.978
								C418.129,731.129,418.34,731.102,418.553,731.089z M411.727,730.495c-2.49-0.101-4.717-0.982-5.42-2.145
								c-0.669-1.111,0.094-2.426,1.843-3.267c2.15,1.754,4.259,3.522,6.324,5.307C413.532,730.476,412.62,730.532,411.727,730.495z
								"/>
						</g>
					</g>
				</g>
			</g>
		</g>
		<g>
			<g>
				<g>
					<path style="fill:#624284;" d="M300.199,733.608c0,2.927,0,5.854,0,8.781c0,0.874,7.27-0.061,7.27-1.948
						c0-2.927,0-5.854,0-8.781C307.469,730.786,300.199,731.721,300.199,733.608L300.199,733.608z"/>
				</g>
			</g>
		</g>
		<g>
			<g>
				<g>
					<path style="fill:#624284;" d="M326.528,757.444c0.6,6.682,0.812,13.364,0.637,20.07c-0.028,1.073,7.215,0.149,7.27-1.948
						c0.176-6.706-0.036-13.388-0.636-20.07C333.68,754.186,326.354,755.508,326.528,757.444L326.528,757.444z"/>
				</g>
			</g>
		</g>
		<g>
			<g>
				<g>
					<path style="fill:#624284;" d="M348.578,774.999c0.604,7.738,1.207,15.475,1.81,23.213c0.139,1.782,7.452,0.388,7.27-1.948
						c-0.603-7.738-1.207-15.475-1.81-23.213C355.71,771.269,348.396,772.663,348.578,774.999L348.578,774.999z"/>
				</g>
			</g>
		</g>
		<g>
			<g>
				<g>
					<path style="fill:#624284;" d="M434.808,817.787c0,8.685,0,17.371,0,26.056c0,2.371,7.921,0.909,7.921-2.122
						c0-8.685,0-17.371,0-26.056C442.729,813.294,434.808,814.756,434.808,817.787L434.808,817.787z"/>
				</g>
			</g>
		</g>
		<g>
			<g>
				<g>
					<path style="fill:#624284;" d="M389.266,797.586c0.587,6.641,0.751,13.291,0.567,19.954c-0.11,3.973,7.294,3.061,7.391-0.459
						c0.198-7.169-0.056-14.3-0.688-21.443C396.223,792.092,388.939,793.887,389.266,797.586L389.266,797.586z"/>
				</g>
			</g>
		</g>
		<g>
			<g>
				<g>
					<path style="fill:#624284;" d="M480.363,827.674c0,6.633,0,13.267,0,19.9c0,5.709,10.737,4.286,10.737-0.711
						c0-6.633,0-13.266,0-19.9C491.101,821.254,480.363,822.678,480.363,827.674L480.363,827.674z"/>
				</g>
			</g>
		</g>
		<g>
			<g>
				<g>
					<path style="fill:#624284;" d="M528.299,828.266c-1.249,11.931-1.727,23.867-1.435,35.86c0.033,1.361,7.323,0.214,7.27-1.948
						c-0.292-11.993,0.185-23.929,1.434-35.86C535.682,825.233,528.537,825.983,528.299,828.266L528.299,828.266z"/>
				</g>
			</g>
		</g>
		<g>
			<g>
				<g>
					<path style="fill:#624284;" d="M576.911,833.314c0.592,9.378,1.183,18.755,1.775,28.133c0.186,2.95,10.756,0.892,10.522-2.819
						c-0.592-9.377-1.183-18.755-1.775-28.133C587.247,827.545,576.677,829.603,576.911,833.314L576.911,833.314z"/>
				</g>
			</g>
		</g>
		<g>
			<g>
				<g>
					<path style="fill:#624284;" d="M629.765,820.508c0.002,11.316,0.414,22.607,1.249,33.893c0.197,2.666,7.494,1.074,7.27-1.948
						c-0.807-10.901-1.217-21.808-1.219-32.74C637.065,816.427,629.764,817.841,629.765,820.508L629.765,820.508z"/>
				</g>
			</g>
		</g>
		<g>
			<g>
				<g>
					<path style="fill:#563D77;" d="M710.825,809.493c-0.004-0.989-0.007-1.977-0.011-2.966c-2.438,0.422-4.876,0.844-7.314,1.265
						c0.629,8.097,1.258,16.195,1.887,24.292c0.25,3.225,7.538,1.505,7.27-1.948c-0.629-8.097-1.258-16.195-1.887-24.292
						c-0.237-3.049-7.324-1.591-7.314,1.265c0.004,0.989,0.007,1.977,0.011,2.966C703.48,813.818,710.836,812.688,710.825,809.493
						L710.825,809.493z"/>
				</g>
			</g>
		</g>
		<g>
			<g>
				<g>
					<path style="fill:#563D77;" d="M739.876,789.432c0.207,5.227,0.414,10.454,0.622,15.681c0.055,1.392,7.355,0.196,7.27-1.948
						c-0.207-5.227-0.414-10.454-0.621-15.681C747.091,786.092,739.791,787.289,739.876,789.432L739.876,789.432z"/>
				</g>
			</g>
		</g>
		<g>
			<g>
				<g>
					<path style="fill:#563D77;" d="M782.604,759.318c0.826,7.946,1.652,15.892,2.478,23.838c0.197,1.899,7.516,0.415,7.27-1.948
						c-0.826-7.946-1.652-15.892-2.478-23.838C789.677,755.471,782.358,756.955,782.604,759.318L782.604,759.318z"/>
				</g>
			</g>
		</g>
		<g>
			<g>
				<g>
					<path style="fill:#563D77;" d="M815.778,727.416c0,4.391,0,8.781,0,13.172c0,3.148,7.285,1.67,7.285-0.854
						c0-4.391,0-8.781,0-13.172C823.063,723.414,815.778,724.892,815.778,727.416L815.778,727.416z"/>
				</g>
			</g>
		</g>
	</g>
</g>
</svg>
